<svg xmlns="http://www.w3.org/2000/svg" viewBox="0 0 390 60" width="390pt" height="60pt">
	<defs>
		<clipPath id="_clipPath_bgsSj4ISlEcCc85gF9dN4IJCaGLP0hJl">
			<rect width="390" height="60"/>
		</clipPath>
	</defs>
	<g clip-path="url(#_clipPath_bgsSj4ISlEcCc85gF9dN4IJCaGLP0hJl)">
		<g>
			<path d=" M 378 39 L 378 45.04 L 348 45.04 L 348 15.04 L 378 15.04 L 378 21 L 348 21 L 348 39 L 378 39 Z  M 351 33 L 351 27 L 375 27 L 375 33 L 351 33 Z " fill-rule="evenodd" fill="rgb(255,255,255)"/>
			<path d=" M 312 45 L 306 45 L 306 15 L 312 15 L 312 45 Z  M 315 21 L 315 15 L 336 15 L 336 45 L 315 45 L 315 39 L 330 39 L 330 21 L 315 21 Z " fill-rule="evenodd" fill="rgb(255,255,255)"/>
			<path d=" M 270.981 21.489 C 271.207 22.68 271.589 23.841 272.106 24.943 C 273.038 26.926 274.449 28.656 276.192 29.973 C 276.192 29.973 276.192 29.987 276.192 29.987 L 277.029 30.61 L 277.029 30.61 L 275.992 30.625 C 275.979 30.625 275.979 30.625 275.979 30.625 C 272.546 30.719 269.245 32.076 266.757 34.445 C 266.756 34.446 266.755 34.447 266.754 34.448 C 265.716 34.273 264.699 33.972 263.722 33.553 C 262.059 32.835 260.555 31.743 259.357 30.373 L 257.295 27.99 C 257.295 27.977 257.295 27.977 257.295 27.977 C 257.095 27.764 256.989 27.485 256.975 27.205 C 257.002 26.793 257.241 26.433 257.601 26.26 C 257.614 26.247 257.614 26.247 257.627 26.247 L 259.89 25.036 L 258.759 22.734 C 258.759 22.734 258.759 22.734 258.759 22.734 C 258.665 22.548 258.625 22.348 258.612 22.148 C 258.612 21.922 258.692 21.709 258.838 21.536 C 259.011 21.337 259.251 21.203 259.517 21.137 C 259.517 21.137 259.517 21.137 259.517 21.137 L 262.591 20.418 C 263.483 20.219 264.388 20.112 265.293 20.112 C 267.273 20.122 269.223 20.591 270.981 21.489 L 270.981 21.489 Z  M 277.793 32.913 L 277.483 33.926 C 277.483 33.926 277.483 33.926 277.483 33.926 C 277.097 35.19 276.897 36.508 276.897 37.838 C 276.907 39.937 277.366 41.998 278.265 43.875 C 278.088 44.218 277.893 44.552 277.683 44.878 C 276.352 46.994 274.395 48.671 272.093 49.656 L 269.192 50.88 C 269.179 50.88 269.179 50.88 269.179 50.88 C 269.019 50.96 268.833 50.987 268.646 51 C 268.42 51 268.194 50.907 268.008 50.76 C 267.808 50.574 267.675 50.321 267.635 50.042 C 267.635 50.042 267.635 50.042 267.635 50.029 L 267.183 47.513 L 264.667 47.859 L 264.401 47.886 C 264.122 47.886 263.856 47.779 263.656 47.58 C 263.456 47.367 263.35 47.087 263.363 46.808 L 263.363 46.635 L 263.629 43.508 C 263.902 40.616 265.171 37.909 267.211 35.855 C 267.804 35.938 268.404 35.975 269.006 35.975 C 271.827 35.989 274.595 35.137 276.924 33.527 C 276.924 33.527 276.924 33.527 276.924 33.527 L 277.793 32.913 L 277.793 32.913 Z  M 279 29.204 L 279 29.204 L 279.346 28.19 C 279.346 28.19 279.346 28.19 279.346 28.19 C 280.317 25.422 282.141 23.027 284.563 21.376 C 284.971 21.091 285.391 20.828 285.827 20.597 C 285.926 19.963 285.973 19.32 285.973 18.675 C 285.987 16.439 285.375 14.23 284.23 12.3 L 282.593 9.599 C 282.593 9.599 282.593 9.586 282.593 9.586 C 282.394 9.24 282.048 9.027 281.662 9 C 281.356 9.013 281.063 9.146 280.85 9.359 C 280.85 9.359 280.85 9.373 280.85 9.373 L 279 11.156 L 277.15 9.373 C 277.15 9.373 277.15 9.359 277.15 9.359 C 276.937 9.146 276.644 9.013 276.338 9 C 275.952 9.027 275.606 9.24 275.407 9.586 C 275.407 9.586 275.407 9.599 275.407 9.599 L 273.77 12.3 C 272.625 14.23 272.013 16.439 272.027 18.675 C 272.027 19.32 272.074 19.963 272.173 20.597 C 272.609 20.828 273.029 21.091 273.437 21.376 C 275.859 23.027 277.683 25.422 278.654 28.19 C 278.654 28.19 278.654 28.19 278.654 28.19 L 279 29.204 L 279 29.204 Z  M 280.207 32.913 L 281.076 33.527 C 281.076 33.527 281.076 33.527 281.076 33.527 C 283.405 35.137 286.173 35.989 288.994 35.975 C 289.634 35.975 290.272 35.933 290.903 35.843 C 292.899 37.917 294.125 40.627 294.371 43.508 L 294.637 46.635 L 294.637 46.808 C 294.65 47.087 294.544 47.367 294.344 47.58 C 294.144 47.779 293.878 47.886 293.599 47.886 L 293.333 47.859 L 290.817 47.513 L 290.365 50.029 C 290.365 50.042 290.365 50.042 290.365 50.042 C 290.325 50.321 290.192 50.574 289.992 50.76 C 289.806 50.907 289.58 51 289.354 51 C 289.167 50.987 288.981 50.96 288.821 50.88 C 288.821 50.88 288.821 50.88 288.808 50.88 L 285.907 49.656 C 283.605 48.671 281.648 46.994 280.317 44.878 C 280.107 44.552 279.912 44.218 279.735 43.875 C 280.634 41.998 281.093 39.937 281.103 37.838 C 281.103 36.508 280.903 35.19 280.517 33.926 C 280.517 33.926 280.517 33.926 280.517 33.926 L 280.207 32.913 L 280.207 32.913 L 280.207 32.913 Z  M 280.971 30.61 L 281.808 29.987 C 281.808 29.987 281.808 29.973 281.808 29.973 C 283.551 28.656 284.962 26.926 285.894 24.943 C 286.411 23.841 286.793 22.68 287.019 21.489 L 287.019 21.489 C 288.777 20.591 290.727 20.122 292.707 20.112 C 293.612 20.112 294.517 20.219 295.409 20.418 L 298.483 21.137 C 298.483 21.137 298.483 21.137 298.483 21.137 C 298.749 21.203 298.989 21.337 299.162 21.536 C 299.308 21.709 299.388 21.922 299.388 22.148 C 299.375 22.348 299.335 22.548 299.241 22.734 C 299.241 22.734 299.241 22.734 299.241 22.734 L 298.11 25.036 L 300.373 26.247 C 300.386 26.247 300.386 26.247 300.399 26.26 C 300.759 26.433 300.998 26.793 301.025 27.205 C 301.011 27.485 300.905 27.764 300.705 27.977 C 300.705 27.977 300.705 27.977 300.705 27.99 L 298.643 30.373 C 297.445 31.743 295.941 32.835 294.278 33.553 C 293.336 33.957 292.356 34.251 291.357 34.425 C 291.342 34.408 291.326 34.393 291.31 34.378 C 288.781 32.023 285.468 30.679 282.008 30.625 L 280.971 30.61 L 280.971 30.61 L 280.971 30.61 L 280.971 30.61 Z " fill-rule="evenodd" fill="rgb(255,255,255)"/>
			<path d=" M 252 38.989 L 252 44.989 L 222 45 L 222 15 L 252 15 L 252 21 L 228 21 L 228 39 L 252 38.989 Z " fill="rgb(255,255,255)"/>
			<path d=" M 180 15.033 L 186 15 L 186 27 L 210 27.107 L 210 45 L 204 45 L 204 33.011 L 180 33 L 180 15.033 Z  M 201 39.011 L 201 45 L 180 44.989 L 180 39 L 201 39.011 Z  M 210 15 L 210 21 L 189 21 L 189.075 15 L 210 15 Z " fill-rule="evenodd" fill="rgb(255,255,255)"/>
			<path d=" M 144 45 L 138.02 45 L 138.02 15 L 168.02 15 L 168.02 45 L 162 45 L 162 21 L 144 21 L 144 45 Z  M 159 27 L 159 33 L 147 33 L 147 27 L 159 27 Z " fill-rule="evenodd" fill="rgb(255,255,255)"/>
			<path d=" M 96 15 L 102 15 L 102 45 L 96 45 L 96 15 L 96 15 Z  M 120 15 L 126 15 L 126 45 L 120 45 L 120 15 L 120 15 Z  M 105 18 L 105 27 L 117 42 L 117 33 L 105 18 Z " fill-rule="evenodd" fill="rgb(255,255,255)"/>
			<path d=" M 60 45 L 54.02 45 L 54.02 15 L 84.02 15 L 84.02 45 L 78 45 L 78 21 L 60 21 L 60 45 Z  M 75 27 L 75 33 L 63 33 L 63 27 L 75 27 Z " fill-rule="evenodd" fill="rgb(255,255,255)"/>
			<path d=" M 36 45 L 42.02 45 L 42.02 15 L 36 15 L 36 45 L 36 45 Z  M 33 27 L 33 33 L 21 33 L 21 27 L 33 27 L 33 27 Z  M 12 45 L 18.02 45 L 18.02 15 L 12 15 L 12 45 Z " fill-rule="evenodd" fill="rgb(255,255,255)"/>
		</g>
	</g>
</svg>
