<svg xmlns="http://www.w3.org/2000/svg" viewBox="0 0 48 48" width="48pt" height="48pt">
	<defs>
		<clipPath id="_clipPath_rCdikkr9PapnJ7Bvg1BoCXfC6hQ6XD6a">
			<rect width="48" height="48"/>
		</clipPath>
	</defs>
	<g clip-path="url(#_clipPath_rCdikkr9PapnJ7Bvg1BoCXfC6hQ6XD6a)">
		<linearGradient id="_lgradient_0" x1="0.5" y1="1" x2="0.49999999999999983" y2="0" gradientTransform="matrix(48,0,0,48,0,0)" gradientUnits="userSpaceOnUse">
			<stop offset="2.083333333333333%" stop-opacity="1" style="stop-color:rgb(235,51,73)"/>
			<stop offset="97.91666666666666%" stop-opacity="1" style="stop-color:rgb(244,92,67)"/>
		</linearGradient>
		<circle vector-effect="non-scaling-stroke" cx="24" cy="24" r="24" fill="url(#_lgradient_0)"/>
		<clipPath id="_clipPath_6ovEe43bVamEOOBg6eBkUH2vMBu6ONZV">
			<circle vector-effect="non-scaling-stroke" cx="24" cy="24" r="24" fill="url(#_lgradient_0)"/>
		</clipPath>
		<g clip-path="url(#_clipPath_6ovEe43bVamEOOBg6eBkUH2vMBu6ONZV)">
			<linearGradient id="_lgradient_1" x1="0.5" y1="0" x2="0.5000000000000001" y2="1" gradientTransform="matrix(33.1,0,0,31.56,7.45,8.22)" gradientUnits="userSpaceOnUse">
				<stop offset="0%" stop-opacity="1" style="stop-color:rgb(255,255,255)"/>
				<stop offset="98.33333333333333%" stop-opacity="1" style="stop-color:rgb(238,238,238)"/>
			</linearGradient>
			<path d=" M 17.974 17.605 C 18.144 18.5 18.431 19.372 18.82 20.2 C 19.52 21.69 20.58 22.99 21.89 23.98 C 21.89 23.98 21.89 23.99 21.89 23.99 L 22.519 24.458 L 22.519 24.458 L 21.74 24.47 C 21.73 24.47 21.73 24.47 21.73 24.47 C 19.15 24.54 16.67 25.56 14.8 27.34 C 14.799 27.341 14.799 27.341 14.798 27.342 C 14.018 27.211 13.254 26.985 12.52 26.67 C 11.27 26.13 10.14 25.31 9.24 24.28 L 7.69 22.49 C 7.69 22.48 7.69 22.48 7.69 22.48 C 7.54 22.32 7.46 22.11 7.45 21.9 C 7.47 21.59 7.65 21.32 7.92 21.19 C 7.93 21.18 7.93 21.18 7.94 21.18 L 9.64 20.27 L 8.79 18.54 C 8.79 18.54 8.79 18.54 8.79 18.54 C 8.72 18.4 8.69 18.25 8.68 18.1 C 8.68 17.93 8.74 17.77 8.85 17.64 C 8.98 17.49 9.16 17.39 9.36 17.34 C 9.36 17.34 9.36 17.34 9.36 17.34 L 11.67 16.8 C 12.34 16.65 13.02 16.57 13.7 16.57 C 15.188 16.578 16.654 16.93 17.974 17.605 L 17.974 17.605 Z  M 23.093 26.189 L 22.86 26.95 C 22.86 26.95 22.86 26.95 22.86 26.95 C 22.57 27.9 22.42 28.89 22.42 29.89 C 22.428 31.467 22.772 33.016 23.448 34.426 C 23.315 34.684 23.168 34.935 23.01 35.18 C 22.01 36.77 20.54 38.03 18.81 38.77 L 16.63 39.69 C 16.62 39.69 16.62 39.69 16.62 39.69 C 16.5 39.75 16.36 39.77 16.22 39.78 C 16.05 39.78 15.88 39.71 15.74 39.6 C 15.59 39.46 15.49 39.27 15.46 39.06 C 15.46 39.06 15.46 39.06 15.46 39.05 L 15.12 37.16 L 13.23 37.42 L 13.03 37.44 C 12.82 37.44 12.62 37.36 12.47 37.21 C 12.32 37.05 12.24 36.84 12.25 36.63 L 12.25 36.5 L 12.45 34.15 C 12.655 31.977 13.608 29.943 15.141 28.399 C 15.587 28.462 16.038 28.49 16.49 28.49 C 18.61 28.5 20.69 27.86 22.44 26.65 C 22.44 26.65 22.44 26.65 22.44 26.65 L 23.093 26.189 L 23.093 26.189 Z  M 24 23.402 L 24 23.402 L 24.26 22.64 C 24.26 22.64 24.26 22.64 24.26 22.64 C 24.99 20.56 26.36 18.76 28.18 17.52 C 28.487 17.305 28.803 17.108 29.13 16.935 C 29.205 16.458 29.24 15.975 29.24 15.49 C 29.25 13.81 28.79 12.15 27.93 10.7 L 26.7 8.67 C 26.7 8.67 26.7 8.66 26.7 8.66 C 26.55 8.4 26.29 8.24 26 8.22 C 25.77 8.23 25.55 8.33 25.39 8.49 C 25.39 8.49 25.39 8.5 25.39 8.5 L 24 9.84 L 22.61 8.5 C 22.61 8.5 22.61 8.49 22.61 8.49 C 22.45 8.33 22.23 8.23 22 8.22 C 21.71 8.24 21.45 8.4 21.3 8.66 C 21.3 8.66 21.3 8.67 21.3 8.67 L 20.07 10.7 C 19.21 12.15 18.75 13.81 18.76 15.49 C 18.76 15.975 18.795 16.458 18.87 16.935 C 19.197 17.108 19.513 17.305 19.82 17.52 C 21.64 18.76 23.01 20.56 23.74 22.64 C 23.74 22.64 23.74 22.64 23.74 22.64 L 24 23.402 L 24 23.402 Z  M 24.907 26.189 L 25.56 26.65 C 25.56 26.65 25.56 26.65 25.56 26.65 C 27.31 27.86 29.39 28.5 31.51 28.49 C 31.99 28.49 32.47 28.458 32.944 28.391 C 34.444 29.949 35.365 31.985 35.55 34.15 L 35.75 36.5 L 35.75 36.63 C 35.76 36.84 35.68 37.05 35.53 37.21 C 35.38 37.36 35.18 37.44 34.97 37.44 L 34.77 37.42 L 32.88 37.16 L 32.54 39.05 C 32.54 39.06 32.54 39.06 32.54 39.06 C 32.51 39.27 32.41 39.46 32.26 39.6 C 32.12 39.71 31.95 39.78 31.78 39.78 C 31.64 39.77 31.5 39.75 31.38 39.69 C 31.38 39.69 31.38 39.69 31.37 39.69 L 29.19 38.77 C 27.46 38.03 25.99 36.77 24.99 35.18 C 24.832 34.935 24.685 34.684 24.552 34.426 C 25.228 33.016 25.572 31.467 25.58 29.89 C 25.58 28.89 25.43 27.9 25.14 26.95 C 25.14 26.95 25.14 26.95 25.14 26.95 L 24.907 26.189 L 24.907 26.189 L 24.907 26.189 Z  M 25.481 24.458 L 26.11 23.99 C 26.11 23.99 26.11 23.98 26.11 23.98 C 27.42 22.99 28.48 21.69 29.18 20.2 C 29.569 19.372 29.856 18.5 30.026 17.605 L 30.026 17.605 C 31.346 16.93 32.812 16.578 34.3 16.57 C 34.98 16.57 35.66 16.65 36.33 16.8 L 38.64 17.34 C 38.64 17.34 38.64 17.34 38.64 17.34 C 38.84 17.39 39.02 17.49 39.15 17.64 C 39.26 17.77 39.32 17.93 39.32 18.1 C 39.31 18.25 39.28 18.4 39.21 18.54 C 39.21 18.54 39.21 18.54 39.21 18.54 L 38.36 20.27 L 40.06 21.18 C 40.07 21.18 40.07 21.18 40.08 21.19 C 40.35 21.32 40.53 21.59 40.55 21.9 C 40.54 22.11 40.46 22.32 40.31 22.48 C 40.31 22.48 40.31 22.48 40.31 22.49 L 38.76 24.28 C 37.86 25.31 36.73 26.13 35.48 26.67 C 34.772 26.973 34.036 27.195 33.285 27.325 C 33.274 27.313 33.262 27.301 33.25 27.29 C 31.35 25.52 28.86 24.51 26.26 24.47 L 25.481 24.458 L 25.481 24.458 L 25.481 24.458 L 25.481 24.458 Z " fill="url(#_lgradient_1)"/>
		</g>
	</g>
</svg>
